{"title":"Duplicity.2009.DVDRip.XVid.AC3(5.1).SWESUB.avi","uid":5506415,"size":1471915038,"categoryP":"video","categoryS":"movies","magnet":"?xt=urn:btih:fe0356ffc8dba99e1673527d534111652ca141a8&amp;dn=Duplicity.2009.DVDRip.XVid.AC3%285.1%29.SWESUB.avi&amp;tr=udp%3A%2F%2Ftracker.openbittorrent.com%3A80&amp;tr=udp%3A%2F%2Fopen.demonii.com%3A1337&amp;tr=udp%3A%2F%2Ftracker.coppersurfer.tk%3A6969&amp;tr=udp%3A%2F%2Fexodus.desync.com%3A6969","seeders":1,"leechers":0,"uploader":"Zen_Bud","files":-1,"time":1271837948,"description":"General\nComplete name                    : Duplicity.avi\nFormat                           : AVI\nFile size                        : 1.37 GiB\nDuration                         : 1h 59mn\nOverall bit rate                 : 1 637 Kbps\n\nVideo\nID                               : 0\nFormat                           : MPEG-4 Visual\nCodec ID                         : XVID\nCodec ID/Hint                    : XviD\nDuration                         : 1h 59mn\nBit rate                         : 1 242 Kbps\nWidth                            : 720 pixels\nHeight                           : 428 pixels\nDisplay aspect ratio             : 2.35:1\nResolution                       : 8 bits\nColorimetry                      : 4:2:0\nScan type                        : Progressive\nBits/(Pixel*Frame)               : 0.161\nStream size                      : 1.04 GiB (76%)\nWriting library                  : XviD 1.1.2 (UTC 2006-11-01)\n\nAudio\nID                               : 1\nFormat                           : AC-3\nFormat/Info                      : Audio Coding 3\nCodec ID                         : 2000\nDuration                         : 1h 59mn\nBit rate mode                    : Constant\nBit rate                         : 384 Kbps\nChannel(s)                       : 6 channels\nChannel positions                : Front: L C R, Side: L R, LFE\nSampling rate                    : 48.0 KHz\nStream size                      : 329 MiB (23%)\n\n\n","torrent":{"xt":"urn:btih:fe0356ffc8dba99e1673527d534111652ca141a8","amp;dn":"Duplicity.2009.DVDRip.XVid.AC3%285.1%29.SWESUB.avi","amp;tr":["udp%3A%2F%2Ftracker.openbittorrent.com%3A80","udp%3A%2F%2Fopen.demonii.com%3A1337","udp%3A%2F%2Ftracker.coppersurfer.tk%3A6969","udp%3A%2F%2Fexodus.desync.com%3A6969"],"infoHash":"fe0356ffc8dba99e1673527d534111652ca141a8","infoHashBuffer":{"type":"Buffer","data":[254,3,86,255,200,219,169,158,22,115,82,125,83,65,17,101,44,161,65,168]},"announce":[],"urlList":[]}}